<svg xmlns="http://www.w3.org/2000/svg" viewBox="0 0 760 240" width="760" height="240">
<defs>
  <clipPath id="sph"><circle cx="60" cy="60" r="50"></circle></clipPath>
  <filter id="glow" x="-80%" y="-80%" width="260%" height="260%"><feGaussianBlur stdDeviation="1.8" result="b"></feGaussianBlur><feMerge><feMergeNode in="b"></feMergeNode><feMergeNode in="SourceGraphic"></feMergeNode></feMerge></filter>
</defs>
<circle cx="120" cy="120" r="98" fill="none" stroke="rgba(240,194,75,.45)" stroke-width="1.4"></circle>
  <circle cx="120" cy="120" r="90" fill="none" stroke="rgba(240,194,75,.22)" stroke-width="1"></circle>

  <g transform="translate(120,120) scale(1.44) translate(-60,-60)">
    <circle cx="60" cy="60" r="50" fill="#0E2A57"></circle>
    <g clip-path="url(#sph)"><circle cx="48.6" cy="14.8" r="1.39" fill="#6E96D6" opacity="0.52"></circle><circle cx="47.4" cy="15.3" r="1.40" fill="#6E96D6" opacity="0.54"></circle><circle cx="46.5" cy="15.9" r="1.42" fill="#6E96D6" opacity="0.55"></circle><circle cx="45.7" cy="16.5" r="1.43" fill="#6E96D6" opacity="0.57"></circle><circle cx="45.2" cy="17.2" r="1.44" fill="#6E96D6" opacity="0.60"></circle><circle cx="44.9" cy="17.8" r="1.46" fill="#6E96D6" opacity="0.62"></circle><circle cx="47.4" cy="21.0" r="1.52" fill="#6E96D6" opacity="0.72"></circle><circle cx="48.6" cy="21.6" r="1.53" fill="#6E96D6" opacity="0.74"></circle><circle cx="50.0" cy="22.1" r="1.54" fill="#6E96D6" opacity="0.75"></circle><circle cx="51.6" cy="22.5" r="1.55" fill="#6E96D6" opacity="0.77"></circle><circle cx="73.5" cy="20.5" r="1.51" fill="#6E96D6" opacity="0.70"></circle><circle cx="74.3" cy="19.8" r="1.50" fill="#6E96D6" opacity="0.68"></circle><circle cx="74.8" cy="19.2" r="1.48" fill="#6E96D6" opacity="0.66"></circle><circle cx="75.1" cy="18.5" r="1.47" fill="#6E96D6" opacity="0.64"></circle><circle cx="75.1" cy="17.8" r="1.46" fill="#6E96D6" opacity="0.62"></circle><circle cx="74.8" cy="17.2" r="1.44" fill="#6E96D6" opacity="0.60"></circle><circle cx="74.3" cy="16.5" r="1.43" fill="#6E96D6" opacity="0.57"></circle><circle cx="73.5" cy="15.9" r="1.42" fill="#6E96D6" opacity="0.55"></circle><circle cx="72.6" cy="15.3" r="1.40" fill="#6E96D6" opacity="0.54"></circle><circle cx="71.4" cy="14.8" r="1.39" fill="#6E96D6" opacity="0.52"></circle><circle cx="70.0" cy="14.3" r="1.38" fill="#6E96D6" opacity="0.50"></circle><circle cx="68.4" cy="13.9" r="1.38" fill="#6E96D6" opacity="0.49"></circle><circle cx="42.7" cy="16.4" r="1.38" fill="#6E96D6" opacity="0.49"></circle><circle cx="41.4" cy="17.2" r="1.39" fill="#6E96D6" opacity="0.52"></circle><circle cx="40.3" cy="18.1" r="1.41" fill="#6E96D6" opacity="0.55"></circle><circle cx="39.6" cy="19.0" r="1.43" fill="#6E96D6" opacity="0.57"></circle><circle cx="39.3" cy="19.9" r="1.45" fill="#6E96D6" opacity="0.60"></circle><circle cx="39.3" cy="20.9" r="1.47" fill="#6E96D6" opacity="0.63"></circle><circle cx="39.6" cy="21.8" r="1.49" fill="#6E96D6" opacity="0.66"></circle><circle cx="40.3" cy="22.7" r="1.50" fill="#6E96D6" opacity="0.69"></circle><circle cx="42.7" cy="24.3" r="1.54" fill="#6E96D6" opacity="0.75"></circle><circle cx="44.4" cy="25.1" r="1.55" fill="#6E96D6" opacity="0.77"></circle><circle cx="46.3" cy="25.7" r="1.57" fill="#6E96D6" opacity="0.79"></circle><circle cx="48.5" cy="26.3" r="1.58" fill="#6E96D6" opacity="0.81"></circle><circle cx="58.6" cy="27.5" r="1.60" fill="#6E96D6" opacity="0.85"></circle><circle cx="61.4" cy="27.5" r="1.60" fill="#6E96D6" opacity="0.85"></circle><circle cx="64.1" cy="27.4" r="1.60" fill="#6E96D6" opacity="0.84"></circle><circle cx="66.7" cy="27.1" r="1.60" fill="#6E96D6" opacity="0.84"></circle><circle cx="69.2" cy="26.8" r="1.59" fill="#6E96D6" opacity="0.82"></circle><circle cx="71.5" cy="26.3" r="1.58" fill="#6E96D6" opacity="0.81"></circle><circle cx="73.7" cy="25.7" r="1.57" fill="#6E96D6" opacity="0.79"></circle><circle cx="75.6" cy="25.1" r="1.55" fill="#6E96D6" opacity="0.77"></circle><circle cx="77.3" cy="24.3" r="1.54" fill="#6E96D6" opacity="0.75"></circle><circle cx="78.6" cy="23.5" r="1.52" fill="#6E96D6" opacity="0.72"></circle><circle cx="79.7" cy="22.7" r="1.50" fill="#6E96D6" opacity="0.69"></circle><circle cx="80.4" cy="21.8" r="1.49" fill="#6E96D6" opacity="0.66"></circle><circle cx="80.7" cy="20.9" r="1.47" fill="#6E96D6" opacity="0.63"></circle><circle cx="80.7" cy="19.9" r="1.45" fill="#6E96D6" opacity="0.60"></circle><circle cx="80.4" cy="19.0" r="1.43" fill="#6E96D6" opacity="0.57"></circle><circle cx="79.7" cy="18.1" r="1.41" fill="#6E96D6" opacity="0.55"></circle><circle cx="78.6" cy="17.2" r="1.39" fill="#6E96D6" opacity="0.52"></circle><circle cx="77.3" cy="16.4" r="1.38" fill="#6E96D6" opacity="0.49"></circle><circle cx="35.3" cy="20.4" r="1.39" fill="#6E96D6" opacity="0.51"></circle><circle cx="34.4" cy="21.5" r="1.41" fill="#6E96D6" opacity="0.55"></circle><circle cx="33.9" cy="22.7" r="1.44" fill="#6E96D6" opacity="0.59"></circle><circle cx="33.9" cy="23.9" r="1.46" fill="#6E96D6" opacity="0.63"></circle><circle cx="34.4" cy="25.0" r="1.49" fill="#6E96D6" opacity="0.66"></circle><circle cx="35.3" cy="26.1" r="1.51" fill="#6E96D6" opacity="0.70"></circle><circle cx="38.3" cy="28.2" r="1.55" fill="#6E96D6" opacity="0.77"></circle><circle cx="40.4" cy="29.2" r="1.57" fill="#6E96D6" opacity="0.80"></circle><circle cx="42.8" cy="30.0" r="1.59" fill="#6E96D6" opacity="0.82"></circle><circle cx="51.6" cy="31.7" r="1.62" fill="#6E96D6" opacity="0.88"></circle><circle cx="54.9" cy="32.0" r="1.63" fill="#6E96D6" opacity="0.89"></circle><circle cx="58.3" cy="32.2" r="1.63" fill="#6E96D6" opacity="0.89"></circle><circle cx="61.7" cy="32.2" r="1.63" fill="#6E96D6" opacity="0.89"></circle><circle cx="65.1" cy="32.0" r="1.63" fill="#6E96D6" opacity="0.89"></circle><circle cx="68.4" cy="31.7" r="1.62" fill="#6E96D6" opacity="0.88"></circle><circle cx="71.5" cy="31.3" r="1.61" fill="#6E96D6" opacity="0.86"></circle><circle cx="74.5" cy="30.7" r="1.60" fill="#6E96D6" opacity="0.85"></circle><circle cx="77.2" cy="30.0" r="1.59" fill="#6E96D6" opacity="0.82"></circle><circle cx="79.6" cy="29.2" r="1.57" fill="#6E96D6" opacity="0.80"></circle><circle cx="81.7" cy="28.2" r="1.55" fill="#6E96D6" opacity="0.77"></circle><circle cx="83.4" cy="27.2" r="1.53" fill="#6E96D6" opacity="0.73"></circle><circle cx="84.7" cy="26.1" r="1.51" fill="#6E96D6" opacity="0.70"></circle><circle cx="85.6" cy="25.0" r="1.49" fill="#6E96D6" opacity="0.66"></circle><circle cx="86.1" cy="23.9" r="1.46" fill="#6E96D6" opacity="0.63"></circle><circle cx="86.1" cy="22.7" r="1.44" fill="#6E96D6" opacity="0.59"></circle><circle cx="85.6" cy="21.5" r="1.41" fill="#6E96D6" opacity="0.55"></circle><circle cx="84.7" cy="20.4" r="1.39" fill="#6E96D6" opacity="0.51"></circle><circle cx="29.6" cy="24.7" r="1.40" fill="#6E96D6" opacity="0.52"></circle><circle cx="29.1" cy="26.1" r="1.43" fill="#6E96D6" opacity="0.57"></circle><circle cx="29.1" cy="27.5" r="1.45" fill="#6E96D6" opacity="0.61"></circle><circle cx="29.6" cy="28.9" r="1.48" fill="#6E96D6" opacity="0.66"></circle><circle cx="30.7" cy="30.2" r="1.51" fill="#6E96D6" opacity="0.70"></circle><circle cx="46.3" cy="36.3" r="1.63" fill="#6E96D6" opacity="0.90"></circle><circle cx="50.0" cy="36.8" r="1.65" fill="#6E96D6" opacity="0.91"></circle><circle cx="54.0" cy="37.2" r="1.65" fill="#6E96D6" opacity="0.93"></circle><circle cx="58.0" cy="37.4" r="1.66" fill="#6E96D6" opacity="0.93"></circle><circle cx="62.0" cy="37.4" r="1.66" fill="#6E96D6" opacity="0.93"></circle><circle cx="66.0" cy="37.2" r="1.65" fill="#6E96D6" opacity="0.93"></circle><circle cx="70.0" cy="36.8" r="1.65" fill="#6E96D6" opacity="0.91"></circle><circle cx="73.7" cy="36.3" r="1.63" fill="#6E96D6" opacity="0.90"></circle><circle cx="77.2" cy="35.6" r="1.62" fill="#6E96D6" opacity="0.87"></circle><circle cx="80.4" cy="34.8" r="1.60" fill="#6E96D6" opacity="0.85"></circle><circle cx="83.3" cy="33.8" r="1.58" fill="#6E96D6" opacity="0.82"></circle><circle cx="85.8" cy="32.7" r="1.56" fill="#6E96D6" opacity="0.78"></circle><circle cx="87.8" cy="31.5" r="1.54" fill="#6E96D6" opacity="0.74"></circle><circle cx="89.3" cy="30.2" r="1.51" fill="#6E96D6" opacity="0.70"></circle><circle cx="90.4" cy="28.9" r="1.48" fill="#6E96D6" opacity="0.66"></circle><circle cx="90.9" cy="27.5" r="1.45" fill="#6E96D6" opacity="0.61"></circle><circle cx="90.9" cy="26.1" r="1.43" fill="#6E96D6" opacity="0.57"></circle><circle cx="90.4" cy="24.7" r="1.40" fill="#6E96D6" opacity="0.52"></circle><circle cx="25.3" cy="28.5" r="1.38" fill="#6E96D6" opacity="0.50"></circle><circle cx="24.7" cy="30.1" r="1.41" fill="#6E96D6" opacity="0.55"></circle><circle cx="24.7" cy="31.7" r="1.45" fill="#6E96D6" opacity="0.60"></circle><circle cx="25.3" cy="33.2" r="1.48" fill="#6E96D6" opacity="0.65"></circle><circle cx="53.1" cy="42.7" r="1.67" fill="#6E96D6" opacity="0.96"></circle><circle cx="57.7" cy="42.9" r="1.68" fill="#6E96D6" opacity="0.96"></circle><circle cx="62.3" cy="42.9" r="1.68" fill="#6E96D6" opacity="0.96"></circle><circle cx="66.9" cy="42.7" r="1.67" fill="#6E96D6" opacity="0.96"></circle><circle cx="71.4" cy="42.3" r="1.66" fill="#6E96D6" opacity="0.94"></circle><circle cx="75.6" cy="41.7" r="1.65" fill="#6E96D6" opacity="0.92"></circle><circle cx="79.6" cy="40.9" r="1.63" fill="#6E96D6" opacity="0.90"></circle><circle cx="83.3" cy="40.0" r="1.61" fill="#6E96D6" opacity="0.87"></circle><circle cx="86.6" cy="38.8" r="1.59" fill="#6E96D6" opacity="0.83"></circle><circle cx="89.4" cy="37.6" r="1.57" fill="#6E96D6" opacity="0.79"></circle><circle cx="91.7" cy="36.2" r="1.54" fill="#6E96D6" opacity="0.75"></circle><circle cx="93.5" cy="34.8" r="1.51" fill="#6E96D6" opacity="0.70"></circle><circle cx="94.7" cy="33.2" r="1.48" fill="#6E96D6" opacity="0.65"></circle><circle cx="95.3" cy="31.7" r="1.45" fill="#6E96D6" opacity="0.60"></circle><circle cx="95.3" cy="30.1" r="1.41" fill="#6E96D6" opacity="0.55"></circle><circle cx="94.7" cy="28.5" r="1.38" fill="#6E96D6" opacity="0.50"></circle><circle cx="21.0" cy="34.6" r="1.40" fill="#6E96D6" opacity="0.53"></circle><circle cx="21.0" cy="36.3" r="1.43" fill="#6E96D6" opacity="0.58"></circle><circle cx="42.7" cy="47.5" r="1.66" fill="#6E96D6" opacity="0.94"></circle><circle cx="47.4" cy="48.1" r="1.68" fill="#6E96D6" opacity="0.96"></circle><circle cx="52.4" cy="48.6" r="1.68" fill="#6E96D6" opacity="0.98"></circle><circle cx="57.4" cy="48.8" r="1.69" fill="#6E96D6" opacity="0.98"></circle><circle cx="62.6" cy="48.8" r="1.69" fill="#6E96D6" opacity="0.98"></circle><circle cx="67.6" cy="48.6" r="1.68" fill="#6E96D6" opacity="0.98"></circle><circle cx="72.6" cy="48.1" r="1.68" fill="#6E96D6" opacity="0.96"></circle><circle cx="77.3" cy="47.5" r="1.66" fill="#6E96D6" opacity="0.94"></circle><circle cx="81.7" cy="46.6" r="1.64" fill="#6E96D6" opacity="0.91"></circle><circle cx="85.8" cy="45.5" r="1.62" fill="#6E96D6" opacity="0.88"></circle><circle cx="89.4" cy="44.3" r="1.60" fill="#6E96D6" opacity="0.84"></circle><circle cx="92.5" cy="42.9" r="1.57" fill="#6E96D6" opacity="0.79"></circle><circle cx="95.0" cy="41.4" r="1.54" fill="#6E96D6" opacity="0.74"></circle><circle cx="97.0" cy="39.8" r="1.50" fill="#6E96D6" opacity="0.69"></circle><circle cx="98.3" cy="38.1" r="1.47" fill="#6E96D6" opacity="0.64"></circle><circle cx="99.0" cy="36.3" r="1.43" fill="#6E96D6" opacity="0.58"></circle><circle cx="99.0" cy="34.6" r="1.40" fill="#6E96D6" opacity="0.53"></circle><circle cx="17.9" cy="39.5" r="1.38" fill="#6E96D6" opacity="0.50"></circle><circle cx="41.4" cy="53.4" r="1.67" fill="#6E96D6" opacity="0.95"></circle><circle cx="46.5" cy="54.1" r="1.68" fill="#6E96D6" opacity="0.97"></circle><circle cx="51.8" cy="54.6" r="1.69" fill="#6E96D6" opacity="0.99"></circle><circle cx="57.2" cy="54.9" r="1.70" fill="#6E96D6" opacity="1.00"></circle><circle cx="62.8" cy="54.9" r="1.70" fill="#6E96D6" opacity="1.00"></circle><circle cx="68.2" cy="54.6" r="1.69" fill="#6E96D6" opacity="0.99"></circle><circle cx="73.5" cy="54.1" r="1.68" fill="#6E96D6" opacity="0.97"></circle><circle cx="78.6" cy="53.4" r="1.67" fill="#6E96D6" opacity="0.95"></circle><circle cx="83.4" cy="52.5" r="1.65" fill="#6E96D6" opacity="0.92"></circle><circle cx="87.8" cy="51.3" r="1.62" fill="#6E96D6" opacity="0.88"></circle><circle cx="91.7" cy="50.0" r="1.60" fill="#6E96D6" opacity="0.84"></circle><circle cx="95.0" cy="48.5" r="1.57" fill="#6E96D6" opacity="0.79"></circle><circle cx="97.8" cy="46.8" r="1.53" fill="#6E96D6" opacity="0.74"></circle><circle cx="99.9" cy="45.1" r="1.50" fill="#6E96D6" opacity="0.68"></circle><circle cx="101.3" cy="43.3" r="1.46" fill="#6E96D6" opacity="0.62"></circle><circle cx="102.1" cy="41.4" r="1.42" fill="#6E96D6" opacity="0.56"></circle><circle cx="102.1" cy="39.5" r="1.38" fill="#6E96D6" opacity="0.50"></circle><circle cx="40.3" cy="59.5" r="1.67" fill="#6E96D6" opacity="0.95"></circle><circle cx="45.7" cy="60.2" r="1.68" fill="#6E96D6" opacity="0.97"></circle><circle cx="51.3" cy="60.7" r="1.69" fill="#6E96D6" opacity="0.99"></circle><circle cx="57.1" cy="61.0" r="1.70" fill="#6E96D6" opacity="1.00"></circle><circle cx="62.9" cy="61.0" r="1.70" fill="#6E96D6" opacity="1.00"></circle><circle cx="68.7" cy="60.7" r="1.69" fill="#6E96D6" opacity="0.99"></circle><circle cx="74.3" cy="60.2" r="1.68" fill="#6E96D6" opacity="0.97"></circle><circle cx="79.7" cy="59.5" r="1.67" fill="#6E96D6" opacity="0.95"></circle><circle cx="84.7" cy="58.5" r="1.65" fill="#6E96D6" opacity="0.92"></circle><circle cx="89.3" cy="57.2" r="1.62" fill="#6E96D6" opacity="0.88"></circle><circle cx="93.5" cy="55.8" r="1.59" fill="#6E96D6" opacity="0.83"></circle><circle cx="97.0" cy="54.3" r="1.56" fill="#6E96D6" opacity="0.78"></circle><circle cx="99.9" cy="52.5" r="1.53" fill="#6E96D6" opacity="0.73"></circle><circle cx="102.1" cy="50.7" r="1.49" fill="#6E96D6" opacity="0.67"></circle><circle cx="103.7" cy="48.8" r="1.45" fill="#6E96D6" opacity="0.61"></circle><circle cx="104.4" cy="46.8" r="1.41" fill="#6E96D6" opacity="0.54"></circle><circle cx="34.4" cy="64.5" r="1.64" fill="#6E96D6" opacity="0.91"></circle><circle cx="39.6" cy="65.5" r="1.66" fill="#6E96D6" opacity="0.94"></circle><circle cx="45.2" cy="66.3" r="1.68" fill="#6E96D6" opacity="0.97"></circle><circle cx="51.0" cy="66.8" r="1.69" fill="#6E96D6" opacity="0.98"></circle><circle cx="57.0" cy="67.1" r="1.70" fill="#6E96D6" opacity="0.99"></circle><circle cx="63.0" cy="67.1" r="1.70" fill="#6E96D6" opacity="0.99"></circle><circle cx="69.0" cy="66.8" r="1.69" fill="#6E96D6" opacity="0.98"></circle><circle cx="74.8" cy="66.3" r="1.68" fill="#6E96D6" opacity="0.97"></circle><circle cx="80.4" cy="65.5" r="1.66" fill="#6E96D6" opacity="0.94"></circle><circle cx="85.6" cy="64.5" r="1.64" fill="#6E96D6" opacity="0.91"></circle><circle cx="98.3" cy="60.1" r="1.55" fill="#6E96D6" opacity="0.77"></circle><circle cx="101.3" cy="58.4" r="1.52" fill="#6E96D6" opacity="0.71"></circle><circle cx="103.7" cy="56.5" r="1.48" fill="#6E96D6" opacity="0.65"></circle><circle cx="105.2" cy="54.5" r="1.44" fill="#6E96D6" opacity="0.59"></circle><circle cx="106.0" cy="52.4" r="1.39" fill="#6E96D6" opacity="0.52"></circle><circle cx="13.2" cy="58.2" r="1.38" fill="#6E96D6" opacity="0.50"></circle><circle cx="14.0" cy="60.2" r="1.42" fill="#6E96D6" opacity="0.56"></circle><circle cx="15.6" cy="62.3" r="1.46" fill="#6E96D6" opacity="0.63"></circle><circle cx="17.9" cy="64.2" r="1.50" fill="#6E96D6" opacity="0.69"></circle><circle cx="39.3" cy="71.5" r="1.65" fill="#6E96D6" opacity="0.92"></circle><circle cx="44.9" cy="72.3" r="1.67" fill="#6E96D6" opacity="0.95"></circle><circle cx="50.9" cy="72.8" r="1.68" fill="#6E96D6" opacity="0.97"></circle><circle cx="56.9" cy="73.1" r="1.69" fill="#6E96D6" opacity="0.98"></circle><circle cx="63.1" cy="73.1" r="1.69" fill="#6E96D6" opacity="0.98"></circle><circle cx="69.1" cy="72.8" r="1.68" fill="#6E96D6" opacity="0.97"></circle><circle cx="75.1" cy="72.3" r="1.67" fill="#6E96D6" opacity="0.95"></circle><circle cx="80.7" cy="71.5" r="1.65" fill="#6E96D6" opacity="0.92"></circle><circle cx="86.1" cy="70.4" r="1.63" fill="#6E96D6" opacity="0.89"></circle><circle cx="106.8" cy="58.2" r="1.38" fill="#6E96D6" opacity="0.50"></circle><circle cx="14.0" cy="66.0" r="1.41" fill="#6E96D6" opacity="0.54"></circle><circle cx="15.6" cy="68.0" r="1.45" fill="#6E96D6" opacity="0.60"></circle><circle cx="17.9" cy="70.0" r="1.49" fill="#6E96D6" opacity="0.67"></circle><circle cx="21.0" cy="71.8" r="1.52" fill="#6E96D6" opacity="0.72"></circle><circle cx="50.9" cy="78.6" r="1.66" fill="#6E96D6" opacity="0.94"></circle><circle cx="56.9" cy="78.9" r="1.67" fill="#6E96D6" opacity="0.95"></circle><circle cx="63.1" cy="78.9" r="1.67" fill="#6E96D6" opacity="0.95"></circle><circle cx="69.1" cy="78.6" r="1.66" fill="#6E96D6" opacity="0.94"></circle><circle cx="75.1" cy="78.1" r="1.65" fill="#6E96D6" opacity="0.93"></circle><circle cx="80.7" cy="77.3" r="1.64" fill="#6E96D6" opacity="0.90"></circle><circle cx="14.8" cy="71.7" r="1.39" fill="#6E96D6" opacity="0.51"></circle><circle cx="16.3" cy="73.7" r="1.43" fill="#6E96D6" opacity="0.58"></circle><circle cx="18.7" cy="75.6" r="1.47" fill="#6E96D6" opacity="0.64"></circle><circle cx="21.7" cy="77.4" r="1.51" fill="#6E96D6" opacity="0.69"></circle><circle cx="57.0" cy="84.3" r="1.65" fill="#6E96D6" opacity="0.92"></circle><circle cx="63.0" cy="84.3" r="1.65" fill="#6E96D6" opacity="0.92"></circle><circle cx="69.0" cy="84.1" r="1.64" fill="#6E96D6" opacity="0.91"></circle><circle cx="74.8" cy="83.5" r="1.63" fill="#6E96D6" opacity="0.89"></circle><circle cx="80.4" cy="82.8" r="1.62" fill="#6E96D6" opacity="0.87"></circle><circle cx="16.3" cy="77.2" r="1.37" fill="#6E96D6" opacity="0.49"></circle><circle cx="17.9" cy="79.1" r="1.41" fill="#6E96D6" opacity="0.55"></circle><circle cx="20.1" cy="80.9" r="1.45" fill="#6E96D6" opacity="0.61"></circle><circle cx="23.0" cy="82.7" r="1.48" fill="#6E96D6" opacity="0.66"></circle><circle cx="57.1" cy="89.4" r="1.62" fill="#6E96D6" opacity="0.88"></circle><circle cx="62.9" cy="89.4" r="1.62" fill="#6E96D6" opacity="0.88"></circle><circle cx="68.7" cy="89.1" r="1.62" fill="#6E96D6" opacity="0.87"></circle><circle cx="74.3" cy="88.6" r="1.61" fill="#6E96D6" opacity="0.85"></circle><circle cx="79.7" cy="87.8" r="1.59" fill="#6E96D6" opacity="0.83"></circle><circle cx="20.1" cy="84.2" r="1.39" fill="#6E96D6" opacity="0.52"></circle><circle cx="22.2" cy="85.9" r="1.43" fill="#6E96D6" opacity="0.57"></circle><circle cx="25.0" cy="87.5" r="1.46" fill="#6E96D6" opacity="0.62"></circle><circle cx="57.2" cy="93.9" r="1.59" fill="#6E96D6" opacity="0.83"></circle><circle cx="62.8" cy="93.9" r="1.59" fill="#6E96D6" opacity="0.83"></circle><circle cx="68.2" cy="93.7" r="1.59" fill="#6E96D6" opacity="0.82"></circle><circle cx="73.5" cy="93.2" r="1.58" fill="#6E96D6" opacity="0.81"></circle><circle cx="23.0" cy="88.8" r="1.37" fill="#6E96D6" opacity="0.48"></circle><circle cx="25.0" cy="90.4" r="1.40" fill="#6E96D6" opacity="0.54"></circle><circle cx="62.6" cy="97.9" r="1.56" fill="#6E96D6" opacity="0.77"></circle><circle cx="67.6" cy="97.6" r="1.55" fill="#6E96D6" opacity="0.77"></circle><circle cx="72.6" cy="97.2" r="1.54" fill="#6E96D6" opacity="0.75"></circle></g>
    <circle cx="60" cy="60" r="50" fill="none" stroke="rgba(255,255,255,.20)" stroke-width="1"></circle>
  </g>
<g transform="translate(120.0,16.0) scale(0.62)" fill="#FBD778" filter="url(#glow)"><circle cx="0" cy="-9" r="5"></circle><path d="M0 -4 C5 -4 8 3 8 14 L-8 14 C-8 3 -5 -4 0 -4 Z"></path></g><g transform="translate(172.0,29.9) scale(0.62)" fill="#FBD778" filter="url(#glow)"><circle cx="0" cy="-9" r="5"></circle><path d="M0 -4 C5 -4 8 3 8 14 L-8 14 C-8 3 -5 -4 0 -4 Z"></path></g><g transform="translate(210.1,68.0) scale(0.62)" fill="#FBD778" filter="url(#glow)"><circle cx="0" cy="-9" r="5"></circle><path d="M0 -4 C5 -4 8 3 8 14 L-8 14 C-8 3 -5 -4 0 -4 Z"></path></g><g transform="translate(224.0,120.0) scale(0.62)" fill="#FBD778" filter="url(#glow)"><circle cx="0" cy="-9" r="5"></circle><path d="M0 -4 C5 -4 8 3 8 14 L-8 14 C-8 3 -5 -4 0 -4 Z"></path></g><g transform="translate(210.1,172.0) scale(0.62)" fill="#FBD778" filter="url(#glow)"><circle cx="0" cy="-9" r="5"></circle><path d="M0 -4 C5 -4 8 3 8 14 L-8 14 C-8 3 -5 -4 0 -4 Z"></path></g><g transform="translate(172.0,210.1) scale(0.62)" fill="#FBD778" filter="url(#glow)"><circle cx="0" cy="-9" r="5"></circle><path d="M0 -4 C5 -4 8 3 8 14 L-8 14 C-8 3 -5 -4 0 -4 Z"></path></g><g transform="translate(120.0,224.0) scale(0.62)" fill="#FBD778" filter="url(#glow)"><circle cx="0" cy="-9" r="5"></circle><path d="M0 -4 C5 -4 8 3 8 14 L-8 14 C-8 3 -5 -4 0 -4 Z"></path></g><g transform="translate(68.0,210.1) scale(0.62)" fill="#FBD778" filter="url(#glow)"><circle cx="0" cy="-9" r="5"></circle><path d="M0 -4 C5 -4 8 3 8 14 L-8 14 C-8 3 -5 -4 0 -4 Z"></path></g><g transform="translate(29.9,172.0) scale(0.62)" fill="#FBD778" filter="url(#glow)"><circle cx="0" cy="-9" r="5"></circle><path d="M0 -4 C5 -4 8 3 8 14 L-8 14 C-8 3 -5 -4 0 -4 Z"></path></g><g transform="translate(16.0,120.0) scale(0.62)" fill="#FBD778" filter="url(#glow)"><circle cx="0" cy="-9" r="5"></circle><path d="M0 -4 C5 -4 8 3 8 14 L-8 14 C-8 3 -5 -4 0 -4 Z"></path></g><g transform="translate(29.9,68.0) scale(0.62)" fill="#FBD778" filter="url(#glow)"><circle cx="0" cy="-9" r="5"></circle><path d="M0 -4 C5 -4 8 3 8 14 L-8 14 C-8 3 -5 -4 0 -4 Z"></path></g><g transform="translate(68.0,29.9) scale(0.62)" fill="#FBD778" filter="url(#glow)"><circle cx="0" cy="-9" r="5"></circle><path d="M0 -4 C5 -4 8 3 8 14 L-8 14 C-8 3 -5 -4 0 -4 Z"></path></g>

  <text x="270" y="112" font-family="Manrope, Arial, sans-serif" font-weight="800" font-size="46" letter-spacing="-0.5" fill="#0E2A57">Communauté</text>
  <text x="272" y="146" font-family="Manrope, Arial, sans-serif" font-weight="600" font-size="20" letter-spacing="7" fill="#C9972B">DES LUMINEUX</text>
</svg>